<svg width="274" height="42" viewBox="0 0 274 42" fill="none" xmlns="http://www.w3.org/2000/svg">
<path d="M20.4937 0.5H57.7926C63.4318 0.5 68.5584 2.8007 72.272 6.51433C75.9857 10.228 78.2989 15.3545 78.2989 20.9937C78.2989 26.633 75.9857 31.7595 72.272 35.4732C68.5584 39.1868 63.4318 41.5 57.7926 41.5H51.2781H50.1028L49.4401 40.4872L45.0637 33.7601H33.2351L28.8588 40.4872L28.1961 41.5H27.0082H20.4937C14.8545 41.5 9.72797 39.1868 6.01433 35.4732C2.3007 31.7595 0 26.633 0 20.9937C0 15.3545 2.3007 10.228 6.01433 6.51433C9.72797 2.8007 14.8545 0.5 20.4937 0.5ZM57.7926 4.90134H20.4937C16.0799 4.90134 12.0537 6.71439 9.12778 9.62778C6.21439 12.5537 4.40134 16.5799 4.40134 20.9937C4.40134 25.4201 6.21439 29.4463 9.12778 32.3597C12.0537 35.2856 16.0799 37.0862 20.4937 37.0862H25.8204L29.609 31.2719L30.2092 30.3591L30.8594 29.3463H32.0473H33.1476H45.1513H46.2516H47.427L48.0897 30.3591L48.6773 31.2719L52.466 37.0862H57.7926C62.219 37.0862 66.2452 35.2856 69.1586 32.3597C72.072 29.4463 73.885 25.4201 73.885 20.9937C73.885 16.5799 72.072 12.5537 69.1586 9.62778C66.2452 6.71439 62.219 4.90134 57.7926 4.90134Z" fill="white"/>
<path fill-rule="evenodd" clip-rule="evenodd" d="M14.8045 20.3059C15.8048 20.3059 17.1427 19.5682 18.2056 20.2184C19.0933 20.7686 18.5432 21.1312 18.5432 21.6938C18.5432 22.0189 19.5935 22.5691 19.5935 23.6069C19.5935 24.4447 19.1559 24.7448 19.1559 25.445C19.1559 25.7326 20.5938 29.3587 20.6188 29.4587C20.6938 29.9839 20.3562 30.4715 22.0442 30.0714C23.2946 29.7838 24.2949 28.5959 24.3825 27.6207C24.645 27.5956 24.8201 27.4831 24.9201 27.283C25.0952 26.9329 24.695 26.4828 25.0702 25.9576C25.2577 25.7076 26.208 25.445 26.208 24.7448C26.208 24.1321 25.7579 23.5819 25.7954 22.9317C25.8454 22.094 26.108 21.9814 26.6581 21.5313C27.2333 21.0687 28.5587 19.7808 28.5587 18.8305C28.5587 18.3303 27.9585 18.7429 27.5084 18.7429C26.8457 18.7429 26.7082 18.3928 26.4081 18.0177C25.9704 17.4801 25.5203 16.9549 25.3953 16.2422C25.0452 14.2916 23.7448 14.9918 24.5325 14.104C25.1702 13.3913 24.2074 13.8039 22.4944 13.2288L21.5441 12.9912C21.1315 13.0162 21.3315 13.5164 20.8939 13.5164C20.5688 13.5164 20.3687 13.3163 20.0811 13.2038C19.8436 13.1162 19.3309 13.0162 19.0683 12.9912C19.1934 12.441 19.1934 12.3285 19.0683 11.7783C18.4681 11.9159 17.7429 12.0034 17.1427 12.1159C15.3797 12.466 14.792 12.1159 14.1668 13.6539C13.9293 14.2291 13.5041 14.3166 13.0415 14.8042C11.6536 16.2422 12.4663 16.0171 12.3538 17.6926C12.3288 18.0927 12.2788 17.8802 12.3663 18.1428C12.4788 18.4554 13.079 19.1306 13.3166 19.4432C13.6542 19.9058 14.0293 20.3059 14.8045 20.3059Z" fill="white"/>
<path d="M57.1431 11.916C57.9809 11.916 58.7436 12.2536 59.2938 12.8038C59.8439 13.354 60.1815 14.1042 60.1815 14.9419C60.1815 15.7797 59.8439 16.5424 59.2938 17.0926C58.7436 17.6428 57.9809 17.9804 57.1431 17.9804C56.3054 17.9804 55.5551 17.6428 55.005 17.0926C54.4548 16.5424 54.1172 15.7797 54.1172 14.9419C54.1172 14.1042 54.4548 13.354 55.005 12.8038C55.5551 12.2536 56.3054 11.916 57.1431 11.916Z" fill="white"/>
<path d="M57.1431 24.082C57.9809 24.082 58.7436 24.4196 59.2938 24.9698C59.8439 25.52 60.1815 26.2827 60.1815 27.108C60.1815 27.9457 59.8439 28.7084 59.2938 29.2586C58.7436 29.8088 57.9809 30.1464 57.1431 30.1464C56.3054 30.1464 55.5551 29.8088 55.005 29.2586C54.4548 28.7084 54.1172 27.9457 54.1172 27.108C54.1172 26.2827 54.4548 25.52 55.005 24.9698C55.5551 24.4196 56.3054 24.082 57.1431 24.082Z" fill="white"/>
<path d="M66.2572 21.0311C66.2572 21.8689 65.9196 22.6191 65.3694 23.1693C64.8318 23.7194 64.0691 24.0695 63.2313 24.0695C62.3935 24.0695 61.6308 23.7194 61.0806 23.1693C60.5305 22.6316 60.1929 21.8689 60.1929 21.0311C60.1929 20.1933 60.5305 19.4306 61.0806 18.8804C61.6308 18.3303 62.3935 17.9927 63.2313 17.9927C64.0691 17.9927 64.8318 18.3303 65.3694 18.8804C65.9196 19.4306 66.2572 20.1933 66.2572 21.0311Z" fill="white"/>
<path d="M54.0907 21.0311C54.0907 21.8689 53.7531 22.6316 53.2029 23.1693C52.6528 23.7194 51.9025 24.0695 51.0648 24.0695C50.227 24.0695 49.4643 23.7194 48.9141 23.1693C48.364 22.6316 48.0264 21.8689 48.0264 21.0311C48.0264 20.1933 48.364 19.4306 48.9141 18.8804C49.4643 18.3303 50.227 17.9927 51.0648 17.9927C51.9025 17.9927 52.6528 18.3303 53.2029 18.8804C53.7531 19.4306 54.0907 20.1933 54.0907 21.0311Z" fill="white"/>
<path d="M112.019 4.05078L111.332 9.60247H100.253L99.2281 17.905H104.767L104.93 16.5296H100.779L101.479 10.9779H111.169L109.631 23.4567H93.0137L95.3894 4.05078H112.019ZM114.833 4.05078H131.463L129.075 23.4567H123.535L124.048 19.2929H118.509L117.996 23.4567H112.457L114.833 4.05078ZM119.697 9.60247L119.184 13.7537H124.723L125.236 9.60247H119.697ZM154.057 23.4567H148.518L150.219 9.60247H147.455L145.742 23.4567H140.203L141.904 9.60247H139.14L137.44 23.4567H131.888L134.276 4.05078H156.433L154.057 23.4567ZM163.085 17.905H174.176L173.501 23.4567H156.871L159.259 4.05078H175.876L175.201 9.60247H164.11L163.948 10.9779H175.039L174.338 16.5296H163.26L163.085 17.905ZM178.69 4.05078H184.241L182.628 17.1798L188.043 18.0926L189.781 4.05078H195.32L192.769 24.8321L176.477 22.0688L178.69 4.05078ZM201.972 17.905H213.05L212.375 23.4567H195.757L198.133 4.05078H214.763L214.076 9.60247H202.997L202.835 10.9779H213.913L213.225 16.5296H202.147L201.972 17.905ZM234.207 4.05078L232.656 16.5296H229.53L232.681 23.4567H226.279L223.128 16.5296H221.578L220.74 23.4567H215.201L217.577 4.05078H234.207ZM227.98 9.60247H222.441L222.278 10.9779H227.817L227.98 9.60247ZM253.65 4.05078L252.962 9.60247H241.884L241.709 10.9779H252.8L251.262 23.4567H234.632L235.32 17.905H246.398L246.56 16.5296H235.482L237.02 4.05078H253.65ZM260.302 17.905H271.381L270.705 23.4567H254.075L256.463 4.05078H273.081L272.406 9.60247H261.327L261.152 10.9779H272.243L271.543 16.5296H260.465L260.302 17.905Z" fill="white"/>
<path d="M140.954 29.0581H148.568L147.481 37.9358H144.942L145.18 36.0352H142.642L142.404 37.9358H139.866L140.954 29.0581ZM143.179 31.5964L142.954 33.497H145.492L145.718 31.5964H143.179ZM165.123 29.0581L164.811 31.5964H159.734L159.659 32.2341H164.736L164.411 34.7723H159.334L158.947 37.9358H156.408L157.509 29.0581H165.123ZM181.666 29.0581L180.953 34.7723H179.528L180.966 37.9358H178.04L176.602 34.7723H175.889L175.502 37.9358H172.963L174.051 29.0581H181.666ZM178.815 31.5964H176.277L176.202 32.2341H178.74L178.815 31.5964ZM192.044 37.9358H189.506L190.594 29.0581H193.132L192.044 37.9358ZM209.687 29.0581L209.374 31.5964H204.298L203.823 35.3975H208.899L208.587 37.9358H200.984L202.072 29.0581H209.687ZM218.615 29.0581H226.23L225.142 37.9358H222.603L222.841 36.0352H220.303L220.065 37.9358H217.527L218.615 29.0581ZM220.84 31.5964L220.615 33.497H223.141L223.379 31.5964H220.84Z" fill="white"/>
<path d="M133.65 34.0346H94.6758V32.2466H133.65V34.0346Z" fill="white"/>
<path d="M271.415 34.0346H232.441V32.2466H271.415V34.0346Z" fill="white"/>
</svg>
