<svg width="1389" height="404" viewBox="0 0 1389 404" fill="none" xmlns="http://www.w3.org/2000/svg">
<path d="M-336.462 230.066C-335.801 218.368 -333.4 206.683 -326.44 195.603C-314.178 176.082 -293.151 191.193 -269.011 199.559C-258.515 203.197 -246.444 208.78 -237.612 201.259C-227.22 192.407 -232.414 178.794 -225.694 169.01C-213.959 151.923 -186.014 132.247 -146.007 129.585C-106.603 126.962 -62.5268 137.332 -34.0458 150.967C-14.6752 160.24 3.06938 171.042 18.8854 182.679M18.8854 182.679C49.0033 204.84 72.128 230.032 86.1712 253.47C109.553 292.494 137.637 388.861 -4.58748 369.896C-49.8947 363.855 -79.7407 348.092 -90.8895 326.105C-118.851 270.961 -64.1643 226.25 7.4812 188.574C11.2255 186.605 15.0268 184.638 18.8854 182.679ZM18.8854 182.679C79.0156 152.155 153.059 123.48 242.353 115.485C284.673 111.696 331.717 115.168 376.427 123.016M376.427 123.016C422.149 131.041 465.43 143.643 498.719 157.734C662.519 227.073 676.906 357.199 556.507 433.03C511.891 461.131 429.503 479.806 361.904 451.147C331.535 438.271 322.55 427.364 314.34 407.906C288.202 345.957 303.931 277.253 326.162 217.391C338.062 185.347 354.428 153.602 376.427 123.016ZM376.427 123.016C409.888 76.4908 456.379 32.6438 520.005 -5.50683C544.686 -20.3057 592.591 -42.7095 625.037 -54.4169C662.787 -68.0385 713.198 -83.1508 764.852 -79.768C803.818 -77.2162 828.511 -68.5285 857.154 -55.1315C916.452 -27.3956 947.516 8.88278 969.772 45.8372C984.529 70.3396 998.123 96.6415 1006.98 123.236M1006.98 123.236C1018.4 157.535 1021.94 192.321 1009.93 224.361C1004.14 239.798 993.878 260.509 966.737 270.383C939.364 280.341 903.374 271.462 890.629 256.511C864.803 226.211 890.522 182.999 923.53 158.514C943.985 143.34 973.243 131.294 1006.98 123.236ZM1006.98 123.236C1035.12 116.515 1066.37 112.568 1098.23 111.893C1144.52 110.912 1197.23 112.995 1233.01 130.481C1239.95 133.873 1246.42 137.496 1252.41 141.304M1252.41 141.304C1278.84 158.095 1295.9 178.483 1302.28 198.515C1303.71 203.017 1315.98 226.726 1294.25 225.804C1256.55 224.202 1237.71 203.189 1232.18 187.981C1225.26 168.954 1233.84 153.128 1252.41 141.304ZM1252.41 141.304C1282.9 121.889 1340.31 113.26 1400.19 118.956C1442.81 123.009 1488.37 138.201 1493.18 160.144" stroke="#26AB4C" stroke-opacity="0.03" stroke-width="155" stroke-linejoin="round"/>
</svg>
