<svg width="1253" height="449" viewBox="0 0 1253 449" fill="none" xmlns="http://www.w3.org/2000/svg">
<circle cx="1133" cy="34" r="29.5" stroke="#E3C213" stroke-width="9"/>
<path d="M1248 359L1185 422M1185 359L1248 422" stroke="#26AB4C" stroke-width="9" stroke-linecap="round" stroke-linejoin="round"/>
<path d="M19.917 32.4058C21.9846 26.3997 28.5298 23.2069 34.5359 25.2746L65.4515 35.9176C71.4577 37.9853 74.6504 44.5304 72.5828 50.5365L61.9397 81.4522C59.8721 87.4583 53.3269 90.6511 47.3208 88.5834L16.4052 77.9404C10.399 75.8727 7.20625 69.3276 9.27393 63.3214L19.917 32.4058Z" stroke="#DF7373" stroke-width="8.70259"/>
<path d="M67.2485 390.865C63.8174 384.838 55.1826 384.838 51.7515 390.865L29.5337 429.892C26.1769 435.789 30.3075 443.355 37.2822 443.355H81.7178C88.6924 443.355 92.8231 435.789 89.4663 429.892L67.2485 390.865Z" stroke="#406AFF" stroke-width="9.31041"/>
</svg>
